<svg id="Capa_1" data-name="Capa 1" xmlns="http://www.w3.org/2000/svg" viewBox="0 0 10.49 11.44"><defs><style>.cls-1{fill:#fff;}</style></defs><path class="cls-1" d="M10,5.19a.49.49,0,0,1-.48-.48A5,5,0,0,0,8.07,1.17a.46.46,0,0,1,0-.67.47.47,0,0,1,.67,0,5.89,5.89,0,0,1,1.75,4.21A.49.49,0,0,1,10,5.19Z"/><path class="cls-1" d="M.48,5.19A.48.48,0,0,1,0,4.71,5.89,5.89,0,0,1,1.75.5a.46.46,0,0,1,.67,0,.46.46,0,0,1,0,.67A5,5,0,0,0,1,4.71.48.48,0,0,1,.48,5.19Z"/><path class="cls-1" d="M9.72,8.06A3.17,3.17,0,0,1,8.58,5.62V4.29A3.34,3.34,0,0,0,5.72,1V.48a.48.48,0,1,0-1,0V1a3.33,3.33,0,0,0-2.86,3.3V5.62A3.24,3.24,0,0,1,.77,8.07a.82.82,0,0,0-.29.63.83.83,0,0,0,.83.83H9.18A.83.83,0,0,0,10,8.7.89.89,0,0,0,9.72,8.06Z"/><path class="cls-1" d="M5.24,11.44A1.79,1.79,0,0,0,7,10H3.49A1.79,1.79,0,0,0,5.24,11.44Z"/></svg>