<?xml version="1.0" encoding="utf-8"?>
<!-- Generator: Adobe Illustrator 24.3.0, SVG Export Plug-In . SVG Version: 6.00 Build 0)  -->
<svg version="1.1" id="Capa_1" xmlns="http://www.w3.org/2000/svg" xmlns:xlink="http://www.w3.org/1999/xlink" x="0px" y="0px"
	 viewBox="0 0 24.33 7.19" style="enable-background:new 0 0 24.33 7.19;" xml:space="preserve">
<style type="text/css">
	.st0{fill:#FFFFFF;}
</style>
<g>
	<path class="st0" d="M19.39,0.13v0.69c-0.18-0.21-0.41-0.39-0.67-0.51c-0.26-0.12-0.55-0.19-0.85-0.19h-3v4.4L13,0.13h-1.84
		L9.39,4.29L8.61,3.55c0,0-0.38,0.61-1.15,0.61c-0.77,0-1.31-0.64-1.31-1.3c0-0.6,0.45-1.34,1.34-1.34c0.59,0,0.92,0.34,1.1,0.6
		l1.18-1.09c0,0-0.82-1.01-2.39-1.01C5.79,0,4.32,1.18,4.32,2.75C4.16,2.56,3.7,2.37,3.22,2.28C2.6,2.16,1.84,2.16,1.84,1.75
		c0-0.27,0.33-0.38,0.68-0.38c0.19,0,0.47,0.04,0.61,0.07c0.6,0.14,0.93,0.32,0.93,0.32l0.52-1.26C4.59,0.49,3.44,0,2.3,0
		C1.01,0,0.11,0.8,0.11,1.87s1.05,1.54,1.93,1.67c0.75,0.11,0.97,0.16,0.97,0.4c0,0.27-0.4,0.31-0.6,0.31
		c-0.63,0-1.4-0.17-1.82-0.43L0,5.07c0,0,1.17,0.6,2.44,0.6c0.92,0,1.91-0.32,2.36-1.33c0,0,0.69,1.33,2.53,1.33
		c0.72,0,1.26-0.19,1.65-0.42L8.84,5.6h1.85l1.39-3.33l1.39,3.33h3.28V4.25h0.45l0.91,1.35h1.96l-1.15-1.7
		c0.29-0.14,0.53-0.36,0.7-0.63c0.17-0.27,0.27-0.59,0.27-0.93v-0.2c0-0.18-0.02-0.36-0.07-0.53h1.01V5.6h1.89V1.61h1.62V0.13H19.39
		z M17.87,2.62c-0.11,0.11-0.27,0.18-0.44,0.18h-0.69V1.56h0.69c0.34,0,0.62,0.28,0.62,0.62C18.06,2.35,17.99,2.51,17.87,2.62z"/>
	<polygon class="st0" points="13.21,5.36 12.47,6.09 12.08,6.49 10.95,5.36 11.34,4.96 12.08,5.7 12.82,4.96 	"/>
	<rect x="10.77" y="6.65" class="st0" width="2.62" height="0.54"/>
</g>
</svg>
