<svg id="Capa_1" data-name="Capa 1" xmlns="http://www.w3.org/2000/svg" viewBox="0 0 14.84 14.84"><defs><style>.cls-1,.cls-2{fill:#fff;}.cls-1{fill-rule:evenodd;}</style></defs><path id="Trazado_2" data-name="Trazado 2" class="cls-1" d="M6.38,10.41a4,4,0,0,0,4-3.93V6.22a3.37,3.37,0,0,0,.68-.73,3.07,3.07,0,0,1-.8.23A1.47,1.47,0,0,0,10.87,5,3.42,3.42,0,0,1,10,5.3a1.41,1.41,0,0,0-1-.46A1.43,1.43,0,0,0,7.56,6.25a.65.65,0,0,0,0,.31A4,4,0,0,1,4.7,5.07,1.46,1.46,0,0,0,5.12,7a1.36,1.36,0,0,1-.65-.19h0A1.39,1.39,0,0,0,5.61,8.16a1.58,1.58,0,0,1-.38,0,.75.75,0,0,1-.26,0,1.44,1.44,0,0,0,1.33,1,2.93,2.93,0,0,1-1.75.61,1.27,1.27,0,0,1-.34,0,3.6,3.6,0,0,0,2.17.69"/><path class="cls-2" d="M7.42,14.84a7.42,7.42,0,1,1,7.42-7.42A7.43,7.43,0,0,1,7.42,14.84Zm0-14A6.62,6.62,0,1,0,14,7.42,6.63,6.63,0,0,0,7.42.8Z"/></svg>