<svg id="Capa_1" data-name="Capa 1" xmlns="http://www.w3.org/2000/svg" viewBox="0 0 14.84 14.84"><defs><style>.cls-1,.cls-2{fill:#fff;}.cls-1{fill-rule:evenodd;}</style></defs><path id="Trazado_1" data-name="Trazado 1" class="cls-1" d="M8,10.85V7.73H9l.15-1.22H8V5.75c0-.35.12-.61.61-.61h.65V4c-.15,0-.53,0-1,0A1.48,1.48,0,0,0,6.69,5.37a1.62,1.62,0,0,0,0,.22v.92H5.63V7.73H6.7v3.12Z"/><path class="cls-2" d="M7.42,14.84a7.42,7.42,0,1,1,7.42-7.42A7.43,7.43,0,0,1,7.42,14.84Zm0-14A6.62,6.62,0,1,0,14,7.42,6.63,6.63,0,0,0,7.42.8Z"/></svg>