<svg id="Capa_1" data-name="Capa 1" xmlns="http://www.w3.org/2000/svg" viewBox="0 0 14.84 14.84"><defs><style>.cls-1,.cls-2{fill:#fff;}.cls-1{fill-rule:evenodd;}</style></defs><path id="Trazado_3" data-name="Trazado 3" class="cls-1" d="M7.42,4.6a12.47,12.47,0,0,1,1.37,0,1.82,1.82,0,0,1,.65.12,1.35,1.35,0,0,1,.65.64,1.81,1.81,0,0,1,.11.65c0,.34,0,.46,0,1.37a10.4,10.4,0,0,1,0,1.37,1.81,1.81,0,0,1-.11.65,1.33,1.33,0,0,1-.65.65,1.62,1.62,0,0,1-.65.11c-.34,0-.46,0-1.37,0a9,9,0,0,1-1.37,0,1.62,1.62,0,0,1-.65-.11,1.35,1.35,0,0,1-.64-.65,1.82,1.82,0,0,1-.12-.65c0-.34,0-.45,0-1.37a12.54,12.54,0,0,1,0-1.37,1.82,1.82,0,0,1,.12-.65A1.22,1.22,0,0,1,5,5a.69.69,0,0,1,.38-.27,2.06,2.06,0,0,1,.65-.11,12.54,12.54,0,0,1,1.37,0m0-.61A13.28,13.28,0,0,0,6,4a2.44,2.44,0,0,0-.84.15,1.59,1.59,0,0,0-1,1A1.74,1.74,0,0,0,4,6,13.28,13.28,0,0,0,4,7.42,13.28,13.28,0,0,0,4,8.83a2.4,2.4,0,0,0,.15.84,1.59,1.59,0,0,0,1,1,2.44,2.44,0,0,0,.84.15,11.07,11.07,0,0,0,1.41,0,11.07,11.07,0,0,0,1.41,0,2.4,2.4,0,0,0,.84-.15,1.62,1.62,0,0,0,1-1,2.4,2.4,0,0,0,.15-.84c0-.38,0-.49,0-1.41a11.07,11.07,0,0,0,0-1.41,2.44,2.44,0,0,0-.15-.84,1.59,1.59,0,0,0-1-1A2.4,2.4,0,0,0,8.83,4,13.28,13.28,0,0,0,7.42,4m0,1.68A1.72,1.72,0,0,0,5.67,7.36v.06A1.75,1.75,0,1,0,7.42,5.67h0m0,2.89a1.11,1.11,0,0,1-1.14-1.1v0a1.12,1.12,0,0,1,1.1-1.14h0a1.12,1.12,0,0,1,1.14,1.1v0a1.11,1.11,0,0,1-1.1,1.14h0M9.25,5.17a.42.42,0,1,0,.42.42.43.43,0,0,0-.42-.42"/><path class="cls-2" d="M7.42,14.84a7.42,7.42,0,1,1,7.42-7.42A7.43,7.43,0,0,1,7.42,14.84Zm0-14A6.62,6.62,0,1,0,14,7.42,6.63,6.63,0,0,0,7.42.8Z"/></svg>